<svg width="13" height="8" viewBox="0 0 13 8" fill="none" xmlns="http://www.w3.org/2000/svg">
<g clip-path="url(#clip0_204_4)">
<path fill-rule="evenodd" clip-rule="evenodd" d="M0.238387 0.927756C0.0862123 1.08002 0.000728974 1.28648 0.000728993 1.50176C0.000729012 1.71703 0.0862124 1.92349 0.238388 2.07576L5.92539 7.76176C6.00089 7.83729 6.09053 7.8972 6.18919 7.93808C6.28785 7.97896 6.39359 8 6.50039 8C6.60718 8 6.71293 7.97896 6.81159 7.93808C6.91025 7.8972 6.99989 7.83729 7.07539 7.76176L12.7624 2.07576C12.8378 2.00031 12.8975 1.91076 12.9383 1.81221C12.9791 1.71366 13 1.60805 13 1.5014C13 1.39475 12.9789 1.28916 12.938 1.19065C12.8972 1.09213 12.8373 1.00263 12.7619 0.927255C12.6864 0.851876 12.5969 0.792096 12.4983 0.751326C12.3998 0.710557 12.2942 0.689597 12.1875 0.689643C12.0809 0.68969 11.9753 0.710742 11.8768 0.751597C11.7783 0.792452 11.6888 0.852311 11.6134 0.927755L6.50039 6.03876L1.38739 0.927756C1.23495 0.77552 1.02832 0.690012 0.812888 0.690012C0.597452 0.690012 0.390824 0.77552 0.238387 0.927756V0.927756Z" fill="#1D2130"/>
</g>
<defs>
<clipPath id="clip0_204_4">
<rect width="13" height="8" fill="white" transform="translate(13 8) rotate(180)"/>
</clipPath>
</defs>
</svg>
